{"asset":{"version":"2.0","generator":"Blockbench 4.10.4 glTF exporter"},"scenes":[{"nodes":[2],"name":"blockbench_export"}],"scene":0,"nodes":[{"rotation":[0,0,-1,6.123233995736766e-17],"name":"cuboid","mesh":0},{"translation":[0.03125,0.109375,0],"name":"cuboid","children":[0]},{"children":[1]}],"bufferViews":[{"buffer":0,"byteOffset":0,"byteLength":216,"target":34962,"byteStride":12},{"buffer":0,"byteOffset":216,"byteLength":216,"target":34962,"byteStride":12},{"buffer":0,"byteOffset":432,"byteLength":144,"target":34962,"byteStride":8},{"buffer":0,"byteOffset":576,"byteLength":48,"target":34963},{"buffer":0,"byteOffset":624,"byteLength":40},{"buffer":0,"byteOffset":664,"byteLength":120}],"buffers":[{"byteLength":784,"uri":"data:application/octet-stream;base64,"}],"accessors":[{"bufferView":0,"componentType":5126,"count":18,"max":[0.15625,0.0625,0.09375],"min":[-0.09375,0,-0.09375],"type":"VEC3"},{"bufferView":1,"componentType":5126,"count":18,"max":[0.4472135901451111,0.8944271802902222,1],"min":[-0.4472135901451111,-1,-1],"type":"VEC3"},{"bufferView":2,"componentType":5126,"count":18,"max":[0.875,0.8125],"min":[0.0625,0.0625],"type":"VEC2"},{"bufferView":3,"componentType":5123,"count":24,"max":[17],"min":[0],"type":"SCALAR"},{"bufferView":4,"componentType":5126,"count":10,"max":[1],"min":[0],"type":"SCALAR"},{"bufferView":5,"componentType":5126,"count":10,"max":[0.03125,0.171875,0],"min":[0.03125,0.109375,0],"type":"VEC3"}],"materials":[{"pbrMetallicRoughness":{"metallicFactor":0,"roughnessFactor":1,"baseColorTexture":{"index":0}},"alphaMode":"MASK","alphaCutoff":0.05,"doubleSided":true}],"textures":[{"sampler":0,"source":0,"name":"texture.png"}],"samplers":[{"magFilter":9728,"minFilter":9728,"wrapS":33071,"wrapT":33071}],"images":[{"mimeType":"image/png","uri":"data:image/png;base64,"}],"meshes":[{"primitives":[{"mode":4,"attributes":{"POSITION":0,"NORMAL":1,"TEXCOORD_0":2},"indices":3,"material":0}]}],"animations":[{"name":"default","samplers":[{"input":4,"output":5,"interpolation":"LINEAR"}],"channels":[{"sampler":0,"target":{"node":1,"path":"translation"}}]}]}